<svg width="25" height="25" viewBox="0 0 25 25" fill="none" xmlns="http://www.w3.org/2000/svg">
<circle cx="12.5" cy="12.5" r="12.5" fill="#334155"/>
<path d="M8.134 19.17C7.284 19.17 6.54733 19.0283 5.924 18.745C5.30067 18.4617 4.819 18.0593 4.479 17.538C4.15033 17.0053 3.98033 16.382 3.969 15.668H6.094C6.094 16.178 6.27533 16.5803 6.638 16.875C7.012 17.1583 7.51633 17.3 8.151 17.3C8.763 17.3 9.239 17.1583 9.579 16.875C9.93033 16.5917 10.106 16.2007 10.106 15.702C10.106 15.2827 9.98133 14.92 9.732 14.614C9.494 14.2967 9.14833 14.0813 8.695 13.968L7.267 13.577C6.29233 13.3277 5.53867 12.88 5.006 12.234C4.48467 11.588 4.224 10.806 4.224 9.888C4.224 9.18533 4.38267 8.57333 4.7 8.052C5.01733 7.53067 5.465 7.12833 6.043 6.845C6.63233 6.56167 7.32367 6.42 8.117 6.42C9.31833 6.42 10.2703 6.73167 10.973 7.355C11.6757 7.967 12.0327 8.79433 12.044 9.837H9.919C9.919 9.34967 9.76033 8.97 9.443 8.698C9.12567 8.41467 8.678 8.273 8.1 8.273C7.54467 8.273 7.114 8.40333 6.808 8.664C6.502 8.92467 6.349 9.293 6.349 9.769C6.349 10.1997 6.46233 10.568 6.689 10.874C6.927 11.1687 7.267 11.3783 7.709 11.503L9.188 11.911C10.174 12.1603 10.9277 12.608 11.449 13.254C11.9703 13.8887 12.231 14.6763 12.231 15.617C12.231 16.3197 12.061 16.943 11.721 17.487C11.381 18.0197 10.905 18.4333 10.293 18.728C9.681 19.0227 8.96133 19.17 8.134 19.17ZM12.9214 19V16.977L17.9024 8.562H13.0404V6.59H20.2484V8.613L15.2504 17.028H20.4354V19H12.9214Z" fill="#F1F5F9"/>
</svg>
